<?xml version="1.0" encoding="UTF-8"?>
<svg version="1.1" viewBox="0 0 2048 646" width="450" height="142" xmlns="http://www.w3.org/2000/svg">
<path transform="translate(242,12)" d="m0 0h23l27 1 18 3 24 7 20 8 21 9 16 9 17 12 16 13 10 9 15 15 13 17 11 15 12 19 8 16 10 21 9 27 6 25 5 32 1 16v56l-1 22-5 40-7 31-5 17-9 21-14 29-13 22-14 18-9 11-28 28-17 13-19 12-23 12-19 8-21 7-30 7-14 2-16 1h-64l-26-2-44-11-29-10-17-8-22-12-16-10-7-6 1-5 6-7 34-26 20-15 21-16 10-9 11-11 5-1h11l7 3 22 3 11 3h37l2-2 5-1 14-1 21-8 17-8 11-7 18-13 9-8 7-8 8-9 12-17 11-21 7-19 5-6-8 6-16 13-17 11-23 13-19 8-17 5-5 2-16 4-22 1h-26l-34-1-22-6-13-5-20-9-14-8-14-11-14-12-12-12-9-11-11-15-10-18-7-15-7-20-4-18-3-17-2-15v-12l2-14 2-10 2-16 6-20 8-21 9-19 11-18 10-13 12-14 12-13 7-7 17-13 15-10 23-12 27-11 16-5 18-2 7-2zm0 138-14 2-13 5-12 7-15 14-7 10-6 13-6 21-1 28 2 14 8 16 9 11 8 7 13 8 11 5 21 6h30l13-4 15-7 14-9 10-8 11-11 10-17 3-10 1-7v-12l-2-22-6-18-9-14-12-13-10-8-11-5-11-2z" fill="#B07F54"/>
<path transform="translate(1064,72)" d="m0 0h8l3 3v17l-2 47v220l1 38 1 146v57l-8 6h-88l-7-4-7-8-2-11v-48l2-175v-53l-2-15 4-7v-33l-5 6-11 30-7 18-6 11-9 15-10 15-12 19-8 11-36 54-11 14-11 18-7 11-7 12-4 2-6-4-10-14-18-27-14-20-9-12-10-14-32-48-13-21-15-26-11-23-8-24-2-10-3-2h-2l1 31 2 40 1 35 1 56v166l-1 28-5 6-5 1h-68l-19-4-5-3-3-5-1-8v-499l1-11h90l7 6 14 20 16 23 14 22 8 12 12 17 14 19 12 17 12 16 13 18 13 19 20 30 5 7 3 1 10-14 7-12 10-14 11-18 8-11 8-12 17-26 10-15 14-20 11-17 16-23 9-13 11-15 9-10 5-6 2-1 57-1 21-1z" fill="#E8B781"/>
<path transform="translate(1793,194)" d="m0 0h55l17 3 19 5 17 7 19 10 15 10 10 8 10 9 7 8 14 19 10 16 8 19 7 23 2 14v63l-1 11-5 5-10 4-24 1h-236l5 20 8 16 8 12 11 12 15 10 16 6 9 2h55l26-9 16-8 11-7 10-8 9-9 4-5 4-3 5 1 9 6 12 10 11 8 16 12 11 11 1 6-7 14-9 11-9 10-11 13-8 8-10 8-14 10-17 9-26 10-24 5-10 1h-42l-18-2-24-7-26-11-18-11-13-10-13-11-20-20-11-15-9-16-9-20-7-21-6-23-2-18-1-17v-27l3-37 5-19 8-21 8-17 9-12 9-11 11-12 6-7 14-11 13-9 17-10 24-13 14-5zm18 89-16 3-21 7-12 7-13 10-12 12-7 11v2l8 2 24 2h119l21-2 10-2-1-7-7-12-11-13-10-8-13-6-13-4-16-2z" fill="#780BC2"/>
<path transform="translate(1415,199)" d="m0 0h29l7 3 15 1 22 9 25 12 16 10 10 9 8 7 8 9 12 18 8 16 8 21 2 12 2 33 1 26 2 184 1 12v14l-3 5-2 1h-84l-2-2-1-23 1-62v-93l-1-33-3-25-4-15-6-14-9-13-11-12-13-9-10-3h-17l-12 3-21 11-17 13-5 6-6 13-4 13-4 33-1 12-1 138-1 44-1 17-1 1-9 1-21 1-3 2-33 2h-12l-8-4-7-5-1-6v-30l2-351 5-3h67l4 4 5 9 3 3 6 1 16-8 22-10 19-6z" fill="#780BC2"/>
<path transform="translate(242,12)" d="m0 0h23l27 1 18 3 24 7 20 8 21 9 16 9 10 7 5 5 7 6-4 1-5 1-5-1h-8l-15 5-5 4-5 12-6 3-1 4v7l3 4-1 5-4 1-1 23-1 11-16 8-5 1-10-8-18-12-13-6-18-6h-33l-11 1-3 2-16 4-17 9-13 9-8 8-9 14-4 8-3 12-2 3-3 22v22l2 9 1 11 5 12 6 11 7 11 1 8-11 7-27 12-31 13-24 10-16 4h-7l-9-6-8-5-6-5-7-15-7-20-4-18-3-17-2-15v-12l2-14 2-10 2-16 6-20 8-21 9-19 11-18 10-13 12-14 12-13 7-7 17-13 15-10 23-12 27-11 16-5 18-2 7-2z" fill="#FEECD7"/>
<path transform="translate(401,57)" d="m0 0 4 2 13 10 13 11 18 18 13 17 11 15 4 6-1 4-3-2v-2h-2l4 9 4 13 5 18 10 30 2 16-14 14-7 8-14 11-34 23-17 13-21 14-20 12-17 9-20 8-23 6-30 5-31 4-38 7-81 18-22 6-6 4-3 6-4-1-12-11-12-7-12-12-8-5-12-20-1-4 7 6 14 8 1 1h7l19-5 30-13 31-13 20-9 7-5h2l-3-10-10-16-5-10-2-6-2-18-1-2v-22l3-22 3-6 3-11 7-13 8-10 7-7 17-11 15-7 15-4 1-1 11-1h33l21 7 15 8 18 13 5 4 5-1 15-7 2-32 1-2 3-1 1-5-3-4v-7l2-5 5-2 5-12 6-5 15-5h8l7 1 6-1-11-9zm-159 93-14 2-13 5-12 7-15 14-7 10-6 13-6 21-1 28 2 14 8 16 9 11 8 7 13 8 11 5 21 6h30l13-4 15-7 14-9 10-8 11-11 10-17 3-10 1-7v-12l-2-22-6-18-9-14-12-13-10-8-11-5-11-2z" fill="#E8B781"/>
<path transform="translate(477,138)" d="m0 0 4 4 10 18 12 26 9 27 6 25 5 32 1 16v56l-1 22-5 40-7 31-5 17-9 21-14 29-13 22-14 18-9 11-28 28-17 13-19 12-23 12-19 8-21 7-30 7-14 2-16 1h-64l-26-2-44-11-29-10-17-8-22-12-16-10-7-6 1-2 2 2 9 2v2l3 1 1 2 10 1 12 5 12 6 18 8 21 7 38 9 21 3 17 1h42l24-1 26-4 27-8 24-9 17-8 21-12 17-12 11-9 15-13 16-16 11-14 8-12-5 4-8 9h-2l-2 4-31 31-11 9-20 15-21 12-19 9-23 9-19 5-18 4-34 4h-36l-24-2-7-3-3-2-17-5-17-6-5-3 1-6 5-5 4-2 4-4 16-6 28-8 23-8 36-16 27-14 11-7 5-4 15-9 3-1v-2l11-8 28-22 13-13h2l2-4 7-8 8-10 11-13 9-10 12-14 12-11h2l2-4 4-6 6-7h2v-2l11-9 3-1v-2l13-9 3-7h2l1-3h2l2-4 9-10 7-8 4-6 5-17 3-14 2-7v-34l-4-28-4-15-6-16-11-26v-8l-8-14-3-5z" fill="#A47246"/>
<path transform="translate(978,77)" d="m0 0h94v18l-2 64-1 116-1 30v25l1 17 1 2 1 11v25l-4 7-7 3-81 3-1 4-2 102-1 24v29l3 5 3 20 1 4 20 1 38 1 31 2 1 5h-99l-5-6v-2h-2v-120l2-103 1-108 1-1 1-9 5-3 1-6v-13l-6 1-12 6-21 8-36 18-29 13-11 7-17 13-11 8-7 4 2-6 3-5 3-8 14-20 11-18 8-11 8-12 17-26 10-15 14-20 11-17 16-23 9-13 11-15 9-10z" fill="#FEDDAF"/>
<path transform="translate(1064,72)" d="m0 0h8l3 3v17l-2 47v220l1 38 1 146v57l-8 6h-88l-7-4-7-8-2-11v-48l2-175v-53l-2-15 4-7v-33l-5 6-11 30-7 18-6 11-9 15-10 15-12 19-8 11-36 54-11 14-11 18-7 11-7 12-4 2-6-4-10-14-18-27-9-13 1-2 3 3h3l10 14 6 10 1 4 3 3v2l4 2 6 7 6-1 2-3v-9h-11l-6-7 1-3-10-16-9-13-3-1v5h-2l-4-6 1-3v-3l-1-5-5-7-3-5-32-48-7-12v-2l10-2 13-1h53l22-2 20-6 19-8 18-10 18-11 17-12 9-7 10-9 12-13 7-9 7-2 1 1-1 121-2 103-1 120h2l4 6 1 1 99 1-1-4-31-2-38-1-20-1-2-5-3-20-3-5v-29l1-24 2-102 2-4 5-1 76-3 7-2 2-4 1-3v-25l-1-11-1-2-1-24v-28l1-25 1-111 2-64 1-18-34 1h-56l-2-2 57-1 21-1z" fill="#A47246"/>
<path transform="translate(1124,208)" d="m0 0h95l1 102 1 65 3 68v69l-2 83-1 8-3 2-7 1h-78l-10-8v-389z" fill="#E9B882"/>
<path transform="translate(1793,194)" d="m0 0h55l17 3 19 5 17 7 19 10 15 10 10 8 10 9 7 8 14 19 10 16 8 19 7 23 2 14v63l-1 11-5 5-10 4-24 1h-236l5 20 8 16 8 12 11 12 15 10 16 6 9 2h55l26-9 16-8 11-7 10-8 6-5-2 4-9 9-15 10-16 8-24 8-13 3h-27l-21-1-7-1-11-5-10-5-8-7-14-14-7-10-8-16-6-15v-14h37l73 1h56l16-1 1-1h17l5-2h36l9 1 4-1h6l5-3h2v-2l4-3v-5l-14-1-12-3v2l-5 1-13-4-14-5-14-2-11-4-11-6-5-4-5-5-2-4 19-9h2l-4-13-1-3-13-2-18 1-16-3h-31l-65 3h-30l-3 1-7 14-1 1-46-1-7-4-4-7-1-2-2-14-3-11-2-1 2-6 10-19 6-3h2v-2l11-8 18-13 19-11 16-8 17-7 22-8 35-8 44-9 20-5 12-1-1-4-5-2v-2l-16-4v-2l-19-2-2-1v-2l-42 1-13 1-17 4-16 6-16 8-16 9-18 12-9 7-5 4-7 8-9 9-10 13-8 11-6 12-2 5-2 12-2-2-1 11v1l-6 1 2-9 9-21 7-14 11-14 12-14 10-11 14-11 13-9 17-10 24-13 14-5zm18 89-16 3-21 7-12 7-13 10-12 12-7 11v2l8 2 24 2h119l21-2 10-2-1-7-7-12-11-13-10-8-13-6-13-4-16-2z" fill="#5D029A"/>
<path transform="translate(569,76)" d="m0 0h90l7 6 14 20 5 7 3 7 1 8 8 15 7 10 9 14 4 9 1 7-5 5-9 7-9 8-4 3h-2v2l6 1v3l-29 9-24 4-30 9-16 3-10-1-4-4-2 13-5 25-1 17v116l2 9 3 11 1 81v28l-1 29-3 3v10l2 21h-9l-1-5v-499z" fill="#FDDCAE"/>
<path transform="translate(1070,93)" d="m0 0h2l-2 66-1 116-1 30v25l1 17 1 2 1 11v25l-4 7-7 3-81 3-1 4-2 102-1 24v29l3 5 3 20 1 4 20 1 38 1 31 2 1 5h-99l-5-6v-2h-2v-120l2-103 1-108 3 3 4-5 3-6 2-6 35-14 17-9 12-9 10-10 7-12 1-27 3-52 2-15z" fill="#E9B882"/>
<path transform="translate(671,235)" d="m0 0 2 3-1 5h-2l1 31 2 40 1 35 1 56v166l-1 28-5 6-5 1h-68l-19-4-5-3-3-5v-3l29 2 72 2-5-5-10-1-74-1v-29l1-43 1-112 2-4 12-2 65-2 1-32 1-58 2-34 2-16 1-14z" fill="#A47246"/>
<path transform="translate(1124,208)" d="m0 0h95v2h-11v2h-57v-2h-26v380l6 3 14 1v-2h34l40 1-1-2-8-1-21-1-51-1-5-1v-46l2-113 1-19 3-5 8-1 28 3 34 6h5l1-8 2-146 1-16h1l2 133 3 68v69l-2 83-1 8-3 2-7 1h-78l-10-8v-389z" fill="#A37146"/>
<path transform="translate(1934,458)" d="m0 0 5 1 9 6 12 10 11 8 16 12 11 11 1 6-7 14-9 11-9 10-11 13-8 8-10 8-14 10-17 9-26 10-24 5-10 1h-42l-18-2-24-7-26-11-18-11-13-10-13-11-13-13h3l9 7 9 9 5 4 3 4 7 2 12 6 8 7 8 3 27 9 10 1 11-2 13 2h39l9-2 13-2 9-4 14-3 15-6 4-4-25 7-11 3-19 1-19 2h-10l-12 1h-18l-8-2-16-2-21-7-21-10-6-3v-2h-2l-1-4h-2l-1-6 4-6 10-6 17-6 25-3h13l31 1h28l19-3 21-7 15-8 10-8 13-9 6-7h2l2-5-1-11h-2l-6-9v-2h-2l1-4z" fill="#5E039A"/>
<path transform="translate(471,136)" d="m0 0h2v2l5 2 4 7 2 3-1 4-1 7 11 28 7 17 4 13 5 36v18l-4 10-7 9-15 15-16 12-35 23-22 13-10 4-9 1-2-5h-19l-20 3-54 14-48 10-20 4-30 7-40 8-25 3v3l10 4 13 4 3 2v2h-7v-2h-9l-10-4-14-7-21-14-1-2 3-6 5-4 16-5 48-11 45-10 47-8 26-3 26-5 22-6 23-10 20-11 22-14 18-13 13-10 27-18 12-9 10-9 7-8 8-8-2-16-12-36-3-12-6-18z" fill="#CD9D6B"/>
<path transform="translate(685,111)" d="m0 0 5 5 13 20 15 23 12 17 14 19 12 17 12 16 13 18 13 19 20 30 5 7 3 1 10-14 1 2-5 10 12-8 15-12 13-9 16-8 28-13 26-13 28-11 8-4 4 1v13l-2 7-2 2h-3v9h-1l-1-12-7 2-8 10-16 17-11 9-17 12-13 8-19 11-16 8-19 7-11 3-23 2h-52l-23 2 9 16 17 25 14 21 7 10 2 4-1 5 1 5 2 5h2v-5l4 1 16 24 3 5-1 4 5 5h7l4 1 1 9-3 4-6 1-8-9-5-5-2-3-2-6-12-17-2-3h-3l-4-2-12-17-9-12-32-48-12-19-14-24-12-23-7-19-5-17-5-15h3l2 2 2 7 10 13 5 5 10 6 19 8 46 14 13 4 9 4 6 4 12 4 4-1-5-5-10-7-7-3-13-8-9-3-11-6-5-3-3-5 1-7 4-6h2v-2l4-4-1-4-8-16-10-18-12-18-5-8-3-7-7-13-7-9-4-4-9-13-6-12-1-8z" fill="#CC9C6A"/>
<path transform="translate(242,12)" d="m0 0h23l27 1 18 3 24 7 20 8 21 9 16 9 10 7 5 5 7 6-4 1-5 1-5-1h-8l-15 5-5 4-5 12-6 3-1 4v7l3 4-1 5-4 1-1 23-1 11-16 8-5 1-10-8-18-12-13-6-18-6h-33l-12 1 2-14 3-19 4-39 4-14 7-8 13-6 13-3 15-1 11-2h7l-21-4-39-1h-30v-1z" fill="#FDDCAE"/>
<path transform="translate(157,189)" d="m0 0v3l-2 10-2 14v22l2 9 1 11 5 12 6 11 7 11 1 8-11 7-27 12-31 13-24 10-16 4h-7l-9-6-8-5-6-5-7-15-6-16v-8l-3-17v-9l7-6 5-9 4-3 25-9 18-8 19-10 25-13 16-9 16-8z" fill="#FDDDAF"/>
<path transform="translate(1420,250)" d="m0 0h20l10 2 12 5 9 7 4 5-1 5-9 12-4 6 15 10 11 11 7 11 4 9-1 7-1 5v13l-2-4-6-16-8-13-12-14-10-8-10-5-5-1h-17l-12 3-21 11-17 13-5 6-6 13-4 13-4 33-1 12-1 138-1 44-1 4h-86l1-21 1-27 8-7 9-8 11-7 10-4 20-5 10-4 5-6 3-11 1-9 1-89v-26l2-22 5-17 6-10 5-3h2l1-6-2-7-1-1 1-12 6-12 10-9 10-6 18-6z" fill="#5D029A"/>
<path transform="translate(955,265)" d="m0 0h3l-2 9-11 30-7 13-9 15-10 15-12 19-8 11-36 54-11 14-11 18-7 11-7 12-4 2-6-4-10-14-18-27-9-13 1-2 3 3h3l10 14 6 10 1 4 3 3v2l4 2 6 7 6-1 2-3v-9h-11l-6-7 1-3-10-16-9-13v-2h-2l1-9-4-10-1-7-2-2-3-16v-5l8-4 2-3 8-2 14-2 23-5 14-5 16-8 11-7 18-13 9-6 14-11 14-16 7-6 2-3h2v-2l3-3h2l1-3 4-1v-2z" fill="#A37246"/>
<path transform="translate(381,369)" d="m0 0h4l-1 9-2 13-8 15-8 18-6 11-8 12-9 11-12 14-13 12-23 16-17 8-16 5-29 6-41 3-12 3-13 5-22 12-14 9-13 8-25 14-19 11-5 2-2 5 5 1v2l9 2 29 12 17 6 14 4 19 4 38 4 12 1h36l36-4 32-8 16-6 19-8 21-11 14-9 17-13 14-12 33-33 11-12v3l-7 11-8 10-11 12-13 13-11 9-12 10-18 12-16 9-16 8-25 10-23 7-7 2-15 2-11 2-24 1h-42l-25-2-22-4-36-9-26-10-24-12-6-2-10-1-4-4v-2l-9-1-3-4 4-6 13-11 28-21 21-16 16-12 10-9 11-11 5-1h11l7 3 22 3 11 3h37l2-2 5-1 14-1 21-8 17-8 11-7 18-13 9-8 7-8 8-9 12-17 11-21 7-19 5-7z" fill="#E8B781"/>
<path transform="translate(1125,76)" d="m0 0h86l5 2 2 3v19l-1 6-1 18-1 67-1 1h-50l-28-1-12-4-1-1v-81l1-28z" fill="#FEDDAF"/>
<path transform="translate(1469,205)" d="m0 0 10 3 24 11 17 9 11 8 14 12 7 7 12 17 8 14 10 25 2 7 2 23 2 44 2 184 1 12v14l-1-3-74-2-4-5-1-3v-51l10-8 14-8 19-7 20-8 4-3 5-13 2-4v-86l-1-21v-7l-2-18-2-14-5-14v-5l-4-9-3-11-6-12v-2h-2l-6-11-4-7v-2h-2v-2h-2l-9-11v-2h-2l-4-6-12-9-32-16-14-5v-2l-4 1z" fill="#5D019B"/>
<path transform="translate(668,244)" d="m0 0h1v12l-2 16-2 34-1 58-1 32-1 1-67 2-10 2-1 3-1 112-1 43v27l-1 2h74l10 1v1l-85-1-2-7v-22l2-7v-137l-1-18 4-14 2-16 2-15 3-16 4-6 14-10 16-10 16-12 12-11 8-15 4-20z" fill="#CD9D6B"/>
<path transform="translate(369,368)" d="m0 0h6l4 2-1 4-10 9-17 13-16 10-21 12-19 8-17 5-5 2-16 4-22 1h-26l-34-1-22-6-13-5-20-9-14-8-14-11-14-12-4-4v-2l3-1 9 7v2l4 2 7 6 19 10 8 4 3 2 6 2 1 2 5 2v2l7 2 13 1 7-2-2-6 4-3 24-3 22-3 24-5 15-3 26-6 26-7 17-7 20-6 6-1 16-1z" fill="#A37146"/>
<path transform="translate(388,363)" d="m0 0 5 1 1 7-2 14-4 16-6 15-10 18-10 13-9 12-19 19-14 11-13 9-14 8-21 10-11 6-10 7-19 10-23 11-41 18-34 14-33 13-5 6h-6l-15-6-3-1v-2l-5-1 2-5 28-16 23-13 11-7 16-10 20-11 19-7 20-2 27-2 33-7 19-7 13-7 17-12 14-12 11-12 11-14 11-17 11-24 8-15 4-22-3-1z" fill="#CD9D6B"/>
<path transform="translate(967,242)" d="m0 0 3 1-1 2h-2l1 4-2 1-3 7-4 9-5 1-3 1v2l-4 2-1 2h-2l-1 3h-2v2l-4 4h-2l-1 3-8 7-8 10-9 8-11 8-19 13-10 7-14 8-14 6-16 4-19 4-12 2-5 1-3 4-7 2 4 21 2 2 2 9 3 8-2 9 2 1h-3v5h-2l-4-6 1-3v-3l-1-5-5-7-3-5-32-48-7-12v-2l10-2 13-1h53l22-2 20-6 19-8 18-10 18-11 17-12 9-7 10-9 12-13 7-9z" fill="#B07F54"/>
<path transform="translate(381,369)" d="m0 0 3 1-1 5-4 9-4 10-5 8-9 21-13 23-10 13-14 15-7 7-14 10-26 13-29 7-15 3-27 1-12 3-19-2-14-2-10 1-16 9-12 9-15 11-22 15-20 15-9 6-2 3 1 4v3l-4 1-5-3v-2l-9-1-3-4 4-6 13-11 28-21 21-16 16-12 10-9 11-11 5-1h11l7 3 22 3 11 3h37l2-2 5-1 14-1 21-8 17-8 11-7 18-13 9-8 7-8 8-9 12-17 11-21 7-19 5-7z" fill="#FCE9D3"/>
<path transform="translate(451,525)" d="m0 0 3 2-1 8-13 16-1 10-20 20-17 13-19 12-23 12-19 8-21 7-30 7-14 2-16 1h-64l-26-2-44-11-29-10-17-8-22-12-16-10-7-6 1-2 2 2 9 2v2l3 1 1 2 10 1 12 5 12 6 18 8 21 7 38 9 21 3 17 1h42l24-1 26-4 27-8 24-9 17-8 21-12 17-12 11-9 15-13 16-16z" fill="#AF7E55"/>
<path transform="translate(238,128)" d="m0 0h28l11 1 16 8 15 8 12 8 11 9 7 8 3 5 3 3v4h2l3 8 1 14-1 3h-3l2 18v23l-2 7-1-4 1-7v-12l-2-22-6-18-9-14-12-13-11-8-9-4-11-2h-44l-14 2-13 5-12 7-15 14-8 13-5 12-5 18-1 28 2 14 8 16 9 11 10 8 14 8 16 6 12 3 29 1v1l-30 1-1 1h-11l-12-3-16-8-9-6-14-12-8-12-3-10-3-11-3-10v-50l7-19 6-10 5-5 1-2h2v-3h2l2-4 17-11 15-8 19-7z" fill="#A47246"/>
<path transform="translate(1070,95)" d="m0 0h1v30l-1 34-1 116-1 30v25l1 17 1 2 1 11v25l-4 7-7 3-81 3-1 4-2 102-1 24v29l3 5 3 20 1 4 20 1 38 1 31 2 1 5h-99l-5-6v-2h-2v-120l2-103 1-108h1l1 38-1 102 14-4 44-1h17l11-1 3-1 1-87 1-12 2-63v-20l4-65z" fill="#CC9C6A"/>
<path transform="translate(1846,198)" d="m0 0 20 2 3 1v2l9 1 7 3v2l5 2 1 4-20 4-27 6-56 12-17 5-21 8-20 9-21 12-18 13-12 9h-2v2l-5 3-2-1 5-9 12-16 7-8 8-9 11-9 15-10 23-12 21-10 28-7 3-2 31-4z" fill="#780BC2"/>
<path transform="translate(978,77)" d="m0 0h94v13l-5 1-4-2h-20l-39 2-13 2-10 5-10 9-9 12-8 11-10 13-11 14-7 11-7 10-9 15-10 15-14 23-13 20-9 16-4 10-5 5-11 9-10 7-7 4 2-6 3-5 3-8 14-20 11-18 8-11 8-12 17-26 10-15 14-20 11-17 16-23 9-13 11-15 9-10z" fill="#FBE9D3"/>
<path transform="translate(217,13)" d="m0 0h42l29 1 1 2-22 2-28 2-23 2-11 3-21 8-12 5-15 8-11 6-14 10-17 13-10 8-22 22-13 17-11 15-17 28-8 13-6 9-4 9-4 18-3-2 1-14 5-19 9-25 10-21 11-18 10-13 12-14 12-13 7-7 17-13 15-10 23-12 27-11 16-5 18-2z" fill="#F7F4F1"/>
<path transform="translate(1261,355)" d="m0 0h2l2 14 2 5 1 47v29l1 67v49l-2 21h86v13l-1 1-9 1-21 1-3 2-33 2h-12l-8-4-7-5-1-6v-30l1-167 1-38z" fill="#C99867"/>
<path transform="translate(345,179)" d="m0 0 5 5 6 9 5 19 3 18v15l-2 14-5 12-9 17-8 9-13 10-9 7-10 6-21 7-9 1h-20l-7-3-9-4-2-1v-2l29-1 8-3 20-8 15-10 10-8 10-10 10-17 4-8 1-5v-23l-1-18h3v-10l-2-10-2-5z" fill="#FEEAD3"/>
<path transform="translate(1125,210)" d="m0 0 25 1-12 14-3 13-3 56-3 43-1 32v20l1 10 4 2v53l-1 12-2 3 1 64-1 26-1 8v19l9 1 51 1 21 1 8 1 1 3h-40l-34-1v2h-14l-6-3-1-1v-319z" fill="#FEEBD3"/>
<path transform="translate(569,201)" d="m0 0h1l4 32 2 5v9l-2 15v137l2 9 3 11 1 81v28l-1 29-3 3v10l2 21h-9l-1-5v-155z" fill="#FEECD6"/>
<path transform="translate(969,225)" d="m0 0h2l1 3-10 10-9 11-7 8-5 4-11 6-25 12-22 10-24 9-21 8-16 2 4-6 14-9 15-12 13-9 16-8 28-13 26-13 28-11z" fill="#E8B781"/>
<path transform="translate(1126,210)" d="m0 0h25v2h57v-2h11v32l-1 16-2 146-2 8-5 1-41-7-26-2-4 2-1 3-1 19-2 118-1 41h-2v-117l2-9v-62l2-1h14l25 3 28 6 7 1v-38l-2-81v-74l-49-1-8-1v-2h-24z" fill="#CD9D6B"/>
<path transform="translate(1124,208)" d="m0 0h95v2h-11v2h-57v-2h-26v380l6 3 14 1v-2h34l40 1 1-157 1-31h1l1 11 1 27v69l-2 83-1 8-3 2-7 1h-78l-10-8v-389z" fill="#A5744A"/>
<path transform="translate(1064,72)" d="m0 0h8l3 3v17l-2 47v220l1 38v110h-1l-1-31-1-63-3-11-11-1-35 2-34 4-5 5-3 10-1 45v23l-1 51v21l-4-5v-29l1-24 2-102 2-4 5-1 76-3 7-2 2-4 1-3v-25l-1-11-1-2-1-24v-28l1-25 1-111 2-64 1-18-34 1h-56l-2-2 57-1 21-1z" fill="#B28054"/>
<path transform="translate(412,578)" d="m0 0 3 2-1 2 2 1-11 9-17 11-16 9-23 11-22 8-32 8-19 3-16 1h-64l-26-2-44-11-29-10-17-8-22-12-16-10-7-6 1-2 2 2 9 2v2l3 1 2 4 7 2 3 3 23 11 13 6 22 8 14 4 15 3 25 4 25 1h53l12-2 7-1h11l14-1 16-4 24-8 11-5 19-9 16-8 15-9 11-8z" fill="#A57348"/>
<path transform="translate(1218,242)" d="m0 0h1l-1 177-1 4-6 1h-12l-24 3-11 4-14 7-8 3-2 3-1 5-1 22-2 102v8l1 5 43 1v1h-42l-5-1v-46l2-113 1-19 3-5 8-1 28 3 34 6h5l1-8 2-146z" fill="#B07F54"/>
<path transform="translate(1806,196)" d="m0 0h42v2l-14 4-31 4-3 2-19 5-9 2-29 14-17 9-14 10-14 12-9 10-10 14-6 9-15 28-2 2h-4l-1-5 2-12 5-12 7-11 13-16 7-8 14-14 8-7 18-12 14-8 17-9 12-5 13-4 12-3z" fill="#FDFAF6"/>
<path transform="translate(140,494)" d="m0 0h14l7 3 22 3 10 3v1h-9l-21-3-6-2-3 5-15 11-12 13-11 8-17 12-18 13-4 5-18 13-4 4 1 4v3l-4 1-5-3v-2l-9-1-3-4 4-6 13-11 28-21 21-16 16-12 10-9 11-11z" fill="#F8F4F0"/>
<path transform="translate(1502,396)" d="m0 0h1l4 34 2 58 1 40v63h75l5 1-1 7-3 2h-84l-2-2-1-23 1-62 1-6v-111z" fill="#FAE6D1"/>
<path transform="translate(1125,76)" d="m0 0h86l5 2 1 3h-4l-2-2-85-1-1 105 6-4 7-2 22-2 46-1 2-1 2-14 2-68 2-5 2 2 1 18-1 18-1 67-1 1h-50l-28-1-12-4-1-1v-81l1-28z" fill="#A47246"/>
<path transform="translate(242,123)" d="m0 0h33l21 7 15 8 10 10 12 11 7 12-1 2-7-9-9-8-15-10-19-10-12-6-11-1h-28l-17 6-17 8-17 11-5 5h-2v3h-2l-2 5-5 5-7 14-4 12v50l6 19 2 9 4 8 8 10 14 11 14 8 13 5 16 2-2 2-4 1h-15l-17-9-14-11-9-9-7-8-10-17-4-11-2-18-1-2v-22l3-22 3-6 3-11 7-13 8-10 7-7 17-11 15-7 15-4 1-1z" fill="#D1A16E"/>
<path transform="translate(459,511)" d="m0 0v3l-7 11-8 10-11 12-13 13-11 9-12 10-18 12-16 9-16 8-25 10-23 7-7 2-15 2-11 2-24 1h-42l-25-2-22-4-36-9-26-10-16-8v-2h2l1-2 32 13 17 6 14 4 19 4 38 4 12 1h36l36-4 32-8 16-6 19-8 21-11 14-9 17-13 14-12 33-33z" fill="#FDF9F3"/>
<path transform="translate(1211,80)" d="m0 0 7 1v19l-2-2-1-10-2 3-2 68-2 14-3 2-46 1-22 2-11 4-3 2v-4l13-7 28-8 12-5 6-4 4-6v-8l4-7 12-14 3-4 2-12 2-18z" fill="#E9B882"/>
<path transform="translate(1126,78)" d="m0 0h85l1 2-2 9-22 2-51 4-1 3-3 34-5 20 1 14 2 11-5 3h-2l1-99z" fill="#FFF9F0"/>
<path transform="translate(1261,355)" d="m0 0h2l2 14 2 5 1 47v29l1 67v49l-2 21 32 1v1l-13 1-5 2v2l-8 2h-10l-2-3-1-236z" fill="#FEECD7"/>
<path transform="translate(569,76)" d="m0 0h90l7 6 12 17 2 6-3-1-7-8-9-4-5-3-5-1h-18l-31 3-17 4-3 3-4 8-4 4-2 10-1 13-2 2-1-13v-35z" fill="#FEECD7"/>
<path transform="translate(238,128)" d="m0 0h28l11 1 16 8-3 1-15-4h-35l-9 2-19 7-19 10-11 9-9 11-6 12-3 13v51l4 15 4 6 4 4 6 10 9 10 15 10 13 6 21 6 29 1v1l-30 1-1 1h-11l-12-3-16-8-9-6-14-12-8-12-3-10-3-11-3-10v-50l7-19 6-10 5-5 1-2h2v-3h2l2-4 17-11 15-8 19-7z" fill="#C08957"/>
<path transform="translate(965,92)" d="m0 0v3l-10 14v1l4-3 3-4 5-5v3l-15 23-11 14-7 8-11 16-11 17-5 10-10 14-10 17-6 9-7 16-7 11-8 10-10 7-4 1 2-6 6-12 8-12 15-22 17-26 10-15 14-20 11-17 16-23 9-13 11-15z" fill="#ECE2DB"/>
<path transform="translate(345,383)" d="m0 0h4l-1 4-3 1-2 4-14 8-28 11-14 7-10 3-9 2-9 3-24 4h-41l-16-2-6-5v-2h7l2 1h39l26-3 16-4 45-15 17-9 10-3z" fill="#B17F54"/>
<path transform="translate(1725,567)" d="m0 0 7 1 26 12 19 6 16 2 8 2h18l13-1h9l19-2 19-1 26-7 10-3v3l-6 4-16 6-14 3-9 4-14 2-5 1h-39l-29-4-30-10-21-10-7-5z" fill="#B07F55"/>
<path transform="translate(1437,202)" d="m0 0 9 1 23 2-1 4-11 3-8 1-34 2-5 2-17 3-25 12-11 7-12 10-2-1v-5l10-10 2-5 18-11 17-8 16-5 7-1h23z" fill="#FDFBF9"/>
<path transform="translate(671,235)" d="m0 0 2 3-1 5h-2l1 36-2-1-1 16-1 92-1 10-2 2-18 1-11 2h-16l-4 2-16 3-8 2-3 5-1 6-1 49-1 25-1 44v17l1 20 2 9 1 4-1 1h-6v-29l1-43 1-112 2-4 12-2 65-2 1-32 1-58 2-34 2-16 1-14z" fill="#B28054"/>
<path transform="translate(1261,213)" d="m0 0h69l-2 4-6 2-16 1-37 1v34l-1 35-1 12-4 5 1 7-2 2-2-2v-100z" fill="#F8E4CE"/>
<path transform="translate(978,77)" d="m0 0h93v9l-21 1-55 3-17 3-12 7-3 3-3 4-3 3-4 2 2-4 10-14 2-5 9-9z" fill="#FEFAF1"/>
<path transform="translate(1221,405)" d="m0 0h1l1 11 1 27v69l-2 83-1 8-3 2-7 1h-78l-10-8v-3h3l1 3 2 1 15 1h15l17-1 20-1h13l11 1v-163z" fill="#9F6B45"/>
<path transform="translate(267,140)" d="m0 0 12 1 9 2 6 1 11 6 7 4 1 4-7-1-9-4-11-2h-44l-14 2-13 5-12 7-15 14-6 9-1-2 6-12 7-6-2-1-2 2h-3v2l-5 3h-2l1-5h2v-2l13-10 13-8 7-3 26-4z" fill="#9D6A45"/>
<path transform="translate(677,251)" d="m0 0 4 3 6 17 6 10 8 11 7 12 12 20 10 20 8 11 10 14 7 10 12 16 4 7h-2l-1 2-5-5-9-14-10-15-1-1 1 4 4 8 4 6-1 2-8-11-19-29-13-21-15-26-11-23-8-24z" fill="#BF8957"/>
<path transform="translate(968,482)" d="m0 0 3 3v39l-1 10 2 22 2 3v12l-1 18h3l1-2 14 1 65 1 15 1 1 5h-99l-5-6v-2h-2v-48l1-52z" fill="#FEEBD4"/>
<path transform="translate(569,591)" d="m0 0 29 2 72 2 1-2 2 8-4 4-5 1h-68l-19-4-5-3-3-5z" fill="#B58458"/>
<path transform="translate(1927,464)" d="m0 0 2 3v7l-9 13-13 13-14 8-16 6-8 2h-51l-21-3-2-2 1-1 21 1h27l17-4 20-7 16-8 12-8 10-9 3-3 3-5z" fill="#FEECD8"/>
<path transform="translate(217,13)" d="m0 0h42l29 1 1 2-22 2-28 2-23 2-11 3-21 8-12 5-15 8-11 6-14 10-17 13-2-1 12-11v-3l4 1-1-3 4-5 24-16 26-12 4-2-2-1 9-3 19-3z" fill="#FEFAF1"/>
<path transform="translate(1469,205)" d="m0 0 10 3 24 11 17 9 11 8 14 12 7 7 12 17 8 14 10 25 2 7 2 23 2 44v15l-2-1-1-5-1-21v-7l-2-18-2-14-5-14v-5l-4-9-3-11-6-12v-2h-2l-6-11-4-7v-2h-2v-2h-2l-9-11v-2h-2l-4-6-12-9-32-16-14-5v-2l-4 1z" fill="#600797"/>
<path transform="translate(51,592)" d="m0 0h10l12 5 12 6 18 8 21 7 38 9 21 3 17 1h42l24-1 10-1-1 4h-7l-7 2-14 1h-58l-21-2-19-3-23-5-31-11-36-18v-2l-7-1z" fill="#B38155"/>
<path transform="translate(670,303)" d="m0 0 2 2 1 9 1 35 1 56v166l-1 28-2 1-1-5-1-275z" fill="#6E415D"/>
<path transform="translate(742,194)" d="m0 0 5 5 13 19 8 10 13 18 13 19 18 27v2h-7l-8-7-8-9-10-16-21-31-7-11-5-12-7-11v-2z" fill="#AD7C52"/>
<path transform="translate(742,367)" d="m0 0 4 4 9 14 10 15 1 3 7-1 6 8v2l3 1 1 5v2l2 5h2v-5l4 1 16 24 3 5-1 4 5 5h7l4 1 1 9-3 4-6 1-8-9-5-5-2-3-2-6-12-17-2-3h-3l-4-2-12-17-9-12-7-11-2-5-5-9-2-3z" fill="#B18054"/>
<path transform="translate(345,179)" d="m0 0 5 5 6 9 5 19 3 18v15l-2 14-5 12-9 17-8 9-13 10-9 7-2-1 10-8 13-13 10-17 5-16 2-13 2-8v-4h-6l-3 4-2-13-1-18h3v-10l-2-10-2-5z" fill="#FEDDAF"/>
<path transform="translate(1130,466)" d="m0 0v3l1 64-1 26-1 8v19l9 1 51 1 21 1 8 1 1 3h-40l-34-1v2h-14l-6-3-1-1v-62l1-21 2-17 1-22z" fill="#FEDDB0"/>
<path transform="translate(969,244)" d="m0 0h1l-1 120-2 103v120l3 9v2h-2l-4-7-1-8v-48l2-175v-53l-2-15 4-7v-33l-2 1 2-8z" fill="#91664B"/>
<path transform="translate(136,516)" d="m0 0m-1 1m-1 1m-1 1m-1 1m-1 1v3l-9 8-16 11-18 13-8 6-5 5-13 10-5 3-2 3 1 4v3l-4 1-5-3v-2l-9-1-3-4 4-6 3-3 5-2 5-4 2 1v1l10-6 11-4 8-1 3-3h2v-2l-2-1 4-6 8-7 7-3 11-2z" fill="#FEFAF1"/>
<path transform="translate(510,406)" d="m0 0h2l3 6-1 11-7 26-8 20-4 7-4 4-4 8-4 4-2-2-1-7 8-14 5-13 5-12 3-12 4-11 3-12z" fill="#9F6B45"/>
<path transform="translate(1064,72)" d="m0 0h8l3 3v17l-2 47-1 129h-1l-1-6-1-18v-85l2-64 1-18-34 1h-56l-2-2 57-1 21-1z" fill="#8D634A"/>
<path transform="translate(1211,80)" d="m0 0 7 1v19l-2-2-1-10-2 3-2 68-2 14-3 2-46 1-22 2-11 4-3 2v-4l13-7 11-3 17-1h10l8 1 7 2h12l3-7 1-6 3-52 1-20z" fill="#CE9E6B"/>
<path transform="translate(1352,587)" d="m0 0h1v13l-1 1-9 1-21 1-3 2-33 2h-12l-8-4-2-3 1-3 58-1 28-1z" fill="#9E6A45"/>
<path transform="translate(1415,199)" d="m0 0h29l7 3 15 1 3 2h-14l-13-2-5-1-1 2h-23l-11 2-19 7-19 10-9 6-2 5-9 9-1 5-5-4-2-25-1-3h3l4 6 5 3 5-1 16-8 20-9 19-6z" fill="#630996"/>
<path transform="translate(1261,355)" d="m0 0h2l2 14 2 5 1 52-1 10h-2v23l-2 30-1 49h-1l-1-181z" fill="#FDEBD5"/>
<path transform="translate(1695,261)" d="m0 0v3l-8 9-13 18-16 30-2 2h-4l-1-5 2-12 5-12 7-11 10-13 12-3 4-2z" fill="#FEEDD8"/>
<path transform="translate(1124,208)" d="m0 0h95v2h-11v2h-57v-2h-26v257h-1l-1-42v-216z" fill="#B8875A"/>
<path transform="translate(1125,210)" d="m0 0 25 1-12 14-4 16h-2v9l-3 31-2 5h-1l-1-15z" fill="#FEEAD1"/>
<path transform="translate(345,383)" d="m0 0 4 1-8 5-16 9-28 12-18 7-17 4-6 2-19 3-11 1h-16l-10-1v-1l11-1 20-1 14-2h6l1-3 31-10 24-8 17-9 10-3z" fill="#B18054"/>
<path transform="translate(1793,194)" d="m0 0h55l1 4-1-2-42 1-13 1-17 4-16 6-16 8-16 9-18 12-9 7-5 4-7 8-9 9-10 13-8 11-6 12-2 5-2 12-2-2-1 11v1l-6 1 2-9 9-21 7-14 11-14 12-14 10-11 14-11 13-9 17-10 24-13 14-5z" fill="#6F1E8A"/>
<path transform="translate(316,414)" d="m0 0 3 1-16 8-15 5-10 3-5 2-16 4-22 1h-26l-34-1-5-2 3-2 39-1h28l15-1 10-2 9-3 13-2 3-3h12z" fill="#9D6A46"/>
<path transform="translate(1074,582)" d="m0 0h1v18l-8 6h-88l-7-4-1-5h2l1 2 3 1h35v-2l3 1 2-1h13l1 1 32 1 6 1v-2l3-1z" fill="#9B6845"/>
<path transform="translate(238,128)" d="m0 0h28l11 1 16 8-3 1-15-4h-35l-9 2-19 7-19 10-11 9-9 11-6 12h-2l-2 9-2 6-1 48h-1v-50l7-19 6-10 5-5 1-2h2v-3h2l2-4 17-11 15-8 19-7z" fill="#BE8857"/>
<path transform="translate(164,181)" d="m0 0 1 3-5 14v50l6 19 2 9 4 8 8 10 14 11 14 8 13 5 16 2-2 2-4 1h-15l-17-9-14-11-9-9-7-8-3-5-6-16-3-13-2-20v-18l2-19 5-12z" fill="#CD9D6B"/>
<path transform="translate(1125,85)" d="m0 0h1l1 10 1-1 7-1h12v1l-10 1-1 3-3 34-5 20 1 14 2 11-5 3h-2z" fill="#FEEBD4"/>
<path transform="translate(1437,202)" d="m0 0 9 1 23 2-1 4-11 3-8 1-34 2-5 1-5-2 1-7-4-2 11-2h23z" fill="#FFFAF1"/>
<path transform="translate(978,77)" d="m0 0 58 1 3 2-3 1-1 2-13 3h-18l-12-1-6 1-7-1v2l-7 6h-3l-1 4-5 6-3 4-3 3-4 2 2-4 10-14 2-5 9-9zm40 7m-26 2h12v1h-12z" fill="#F9F7F5"/>
<path transform="translate(1221,405)" d="m0 0h1l1 11 1 27v69l-2 83-1 6h-1v-165z" fill="#641489"/>
<path transform="translate(572,299)" d="m0 0h1l1 100 2 9 3 11 1 81v28l-1 29-3 3v10l1 7v11h-1l-2-16-2-6v-6l3-4v-21l1-21v-17l1-39v-31l-2-13-3-11z" fill="#FEDDAF"/>
<path transform="translate(677,251)" d="m0 0 4 3 6 17 2 4 2 7 14 27 4 6 6 11 14 22 9 13 4 6 2 6 4 8 4 6-1 2-8-11-19-29-13-21-15-26-11-23-8-24z" fill="#A37147"/>
<path transform="translate(671,595)" d="m0 0h1l1 6-4 4-5 1h-68l-12-3v-1l11-2h44v-2l4-2 9 1 10 2h6l2-1z" fill="#A16F46"/>
<path transform="translate(968,482)" d="m0 0 3 3v39l-1 10 2 22 2 3v12l-1 18 2 1-6 1-1-4h-2v-48l1-52z" fill="#FDDDB0"/>
<path transform="translate(1725,226)" d="m0 0 2 1-10 7 13 1-5 4-12 8-15 13-5 3-5 5-9 2-3 1 2-4 7-8 14-14 8-7z" fill="#FEF8EE"/>
<path transform="translate(1725,567)" d="m0 0 7 1 26 12 19 6 16 2 6 3 6 1 1 4 5 1v1h-7l-25-4-26-9-21-10-7-5z" fill="#FFF9EF"/>
<path transform="translate(459,511)" d="m0 0v3l-7 11-8 10-11 12-13 13-11 9-12 10-7 5-4-1-1-3 16-12 14-12 33-33z" fill="#FEEBD4"/>
<path transform="translate(1069,244)" d="m0 0h1l1 18 1 6 1 91v40l-2-2-1-37-1-11-1-2-1-24v-28l1-25v-13z" fill="#AD7C51"/>
<path transform="translate(1560,594)" d="m0 0h28l2 1-2 5-2 1h-84l-2-2 1-3 31 1v-2z" fill="#EFC899"/>
<path transform="translate(671,235)" d="m0 0 2 3-1 5h-2l1 36-2-1-1 16-1 92-1 10-2 2h-18v-1l16-1 1-32 1-58 2-34 2-16 1-14z" fill="#B28054"/>
<path transform="translate(1502,396)" d="m0 0h1l4 34 1 31v22h-1l-1-7-1 41-2 10h-1l-1-130z" fill="#FFF7EC"/>
<path transform="translate(1260,371)" d="m0 0h1v228l-2-1-1-6v-30l1-167z" fill="#774362"/>
<path transform="translate(44,153)" d="m0 0h4l-2 5-8 14-9 13-5 11-4 18-3-2 1-14 5-19 7-20h3l8-5z" fill="#FDF9F0"/>
<path transform="translate(1804,598)" d="m0 0 42 1 1 1 8 1-2 5-3 2h-45l-4-5-4-3z" fill="#770AC2"/>
<path transform="translate(1267,426)" d="m0 0h1v24l1 85h-1l-1-13h-2v25l-2 2v-79l1-11 1-23h2z" fill="#F2CFA1"/>
<path transform="translate(581,589)" d="m0 0h71l14 1 4 3v2h-40l-32-1-11-1-6-2z" fill="#FEEBD3"/>
<path transform="translate(787,420)" d="m0 0 4 1 16 24 3 5-1 4 5 5h7l4 1 1 9-3 4-6 1-8-9-5-5-2-3-2-8 1-2h2l-13-18-3-5z" fill="#B28156"/>
<path transform="translate(152,508)" d="m0 0h12l18 2 12 5 5 1v1l-9 1-29-4-10 1-16 9-12 9-15 11-22 15-5 4-2-1 10-8 17-12 10-7 13-10 10-8 11-8z" fill="#FEDDAF"/>
<path transform="translate(669,277)" d="m0 0 2 2 1 11v15h-1v191h-1l-1-76-1-5 1-8v-48l-1-11-1-14v-43l1-13z" fill="#9F6B45"/>
<path transform="translate(1142,403)" d="m0 0 26 2 7 1v1l-28-1-7 3-2 15-1 19-1 49v89l1 5 43 1v1h-42l-5-1v-46l2-113 1-19 3-5z" fill="#C18A58"/>
<path transform="translate(51,592)" d="m0 0h10l12 5 12 6 18 8 21 7 38 9v1l-14-1-20-4-31-9-9-4-9-3-19-9-1-3-7-1z" fill="#C18B5A"/>
<path transform="translate(1214,86)" d="m0 0 2 2v5h-1l-1 14-1 65-2 4-6 2-19 1-18-1-20 1-13 2-9 4-2-1 5-4 9-3 22-2 46-1 2-1 2-14 2-68z" fill="#B07F54"/>
<path transform="translate(1131,587)" d="m0 0 58 1 21 1 8 1 1 3h-40l-34-1v2h-14l-2-1v-5z" fill="#FFEDD8"/>
<path transform="translate(53,356)" d="m0 0 5 2 7 7 5 4v2l5 2 9 6 11 10 21 14 8 5 9 4v1h-6l-7-4-11-6-12-6-11-9v-2l-4-2-6-4-3 1-7-7-9-11-4-5z" fill="#B18054"/>
<path transform="translate(1900,299)" d="m0 0 4 2 5 5 6 7 3 3 7 12 4 13v7h-4l-15-30-8-8-2-3z" fill="#780BC3"/>
<path transform="translate(376,377)" d="m0 0 1 3-4 8-5 15-6 11-12 19-10 13-9 10-11 10-16 11h-2l-2 4-5 2-20 11-14 4-8 3-9 1-1-2 12-2 25-10 17-9 18-13 10-8 12-13 9-11 10-15 10-19 7-19z" fill="#A77955"/>
<path transform="translate(969,444)" d="m0 0 2 4 2 27v44l-1 14v23h-1l-2-22 1-10v-39l-1-2-1 4-1 52h-1v-72l1-2 1-20z" fill="#E3B27D"/>
<path transform="translate(76,379)" d="m0 0 8 6 2 1v2l4 2 7 8 9 6 9 5v2l10 3 5 2v2l6 1 7 4 6 4 19 4 1 3-10-1-17-6-24-11-15-9-12-10-11-9-6-6v-2z" fill="#A26E47"/>
<path transform="translate(1922,470)" d="m0 0v3l-10 10-15 10-16 8-24 8-13 3h-27l-21-1-2-1 2-3h58l26-9 16-8 11-7 10-8z" fill="#815D4D"/>
<path transform="translate(1265,208)" d="m0 0h67l3 3-4 1-1 1-70 1 1-4z" fill="#620F8D"/>
<path transform="translate(1125,76)" d="m0 0h86l5 2 1 3h-4l-2-2-85-1-1 85-1 19h-1v-77l1-28z" fill="#896450"/>
<path transform="translate(569,425)" d="m0 0h1l1 30v52l-1 62-1 8h-1v-146z" fill="#C19062"/>
<path transform="translate(965,459)" d="m0 0h1l1 128 3 9v2h-2l-4-7-1-8v-48l1-75z" fill="#74544B"/>
<path transform="translate(183,147)" d="m0 0 2 1-10 10-8 13-4 12-5 12-2 19v18l3 26 7 21-3-3-6-12-2-6-2-18-1-2v-22l3-22 3-6 3-11 7-13 8-10z" fill="#E9B882"/>
<path transform="translate(978,440)" d="m0 0h1v50l-1 51v21l-4-5v-29l1-24 1-60z" fill="#B88455"/>
<path transform="translate(384,581)" d="m0 0h2v2h2l-1 3-20 12-16 8-18 8-7 2-3-4 24-10 23-12z" fill="#FDF9F4"/>
<path transform="translate(351,437)" d="m0 0 1 2-9 14-9 10-7 8-10 10-14 10-26 13-29 7-15 3h-27v-1l34-3 28-7 25-10 16-9 10-9 5-4 7-8 10-11 7-11z" fill="#FEDDAF"/>
<path transform="translate(333,180)" d="m0 0 9 1 4 1 3 8 1 14-1 3h-3l2 18v23l-2 7-1-4 1-7v-12l-2-22-6-18-5-8z" fill="#C18D5C"/>
<path transform="translate(1415,199)" d="m0 0h29l7 3 15 1 3 2h-14l-13-2-5-1-1 2h-23l-11 2-19 7-12 6h-2l1-4 21-9 20-6z" fill="#6B1A87"/>
<path transform="translate(1137,182)" d="m0 0h9l13 2 3 2 16 1 1 4h-43l-10-3-1-2 7-1 1-2z" fill="#9F6B45"/>
<path transform="translate(1064,72)" d="m0 0h8l3 3v17l-2 37h-1v-51h-90l-2-2 57-1 21-1z" fill="#8F6953"/>
<path transform="translate(1295,598)" d="m0 0h18l7 1 29 1v1l-6 1-21 1-3 2-33 2h-12l-8-4 1-3 3 2v2h2v-2h17v1h10l2-2-6-2z" fill="#73524D"/>
<path transform="translate(1793,194)" d="m0 0h55l1 4-1-2-42 1-13 1-17 4-16 6-16 8-7 4h-2l1-3 19-10 12-6 13-4z" fill="#825950"/>
<path transform="translate(136,516)" d="m0 0m-1 1m-1 1m-1 1m-1 1m-1 1v3l-9 8-16 11-18 13-8 6-5 5-4 2 6-10 4-1 5-4h2v-2l-2-1 4-6 8-7 7-3 11-2z" fill="#FFEDD8"/>
<path transform="translate(345,383)" d="m0 0 4 1-8 5-16 9-28 12-18 7-17 4h-7l3-2 36-12 13-5 16-8 19-10z" fill="#CD9D6B"/>
<path transform="translate(1725,427)" d="m0 0h25v1l-23 1 5 20 8 16 8 12 11 12 15 10 16 6 7 3-2 2h-6l-11-5-10-5-8-7-14-14-7-10-8-16-6-15z" fill="#630E90"/>
<path transform="translate(174,273)" d="m0 0 3 3 6 9 8 9 15 10 13 6 21 6 29 1v1h-33l-9-3-12-2-8-4-3-3-5-3v-2l-6-1-10-6-5-6-4-7z" fill="#92674C"/>
<path transform="translate(1135,208)" d="m0 0h84v2h-11v2h-57v-3h-16z" fill="#8F654C"/>
<path transform="translate(967,587)" d="m0 0 4 5 2 2 99 1-1-5 2-1v9l-4 1-15-2h-65l-2 4h-10l-4-2v-2h-2l-1 3-1-4-2-5z" fill="#C89665"/>
<path transform="translate(1437,202)" d="m0 0 9 1 23 2-1 4-11 3-8 1h-18l2-3 7-2 11-1-29-2h-16v-1l7-1h23z" fill="#FEEDD8"/>
<path transform="translate(354,426)" d="m0 0 1 2-6 10-12 15-5 6-8 7-18 14-4 5-9 4-5 1 2-5 6-4 5-2 3-3 17-12 15-14 13-17z" fill="#FEF5E8"/>
<path transform="translate(1126,223)" d="m0 0 3 3 3 10v14l-3 31-2 5h-1z" fill="#FFFBF3"/>
<path transform="translate(342,266)" d="m0 0 1 2-8 18-12 14-7 4-11 1 2-4 7-5 3-4 8-3 9-9 3-7z" fill="#FDF8EF"/>
<path transform="translate(1641,332)" d="m0 0h2l-1 7-1 3-3 40v33l2 25 5 22 1 8-2-3-6-23-2-18-1-17v-27l3-37z" fill="#6D1B8A"/>
<path transform="translate(969,244)" d="m0 0h1l-1 67-1 39h-2l-1-43-2-15 4-7v-33l-2 1 2-8z" fill="#72524C"/>
<path transform="translate(1915,576)" d="m0 0v3l-6 4-16 6-14 3-6 3h-6v-2l-2-1 1-2 9-2 4-2 26-7z" fill="#FEF4E7"/>
<path transform="translate(1218,260)" d="m0 0h1l1 50v118h-1l-1-9-1-5z" fill="#A37047"/>
<path transform="translate(1735,576)" d="m0 0 23 10 25 8 13 2v1l-9 2-9-1-20-7-7-2-9-4-7-6z" fill="#7A10BC"/>
<path transform="translate(41,338)" d="m0 0 4 1 3 6 14 12 11 9 17 16 7 7h-3l-12-11-12-7-12-12-8-5-9-15z" fill="#CD9D6B"/>
<path transform="translate(671,595)" d="m0 0h1l1 6-4 4-5 1h-64l1-2 36-1 4-1 15-1h12v-2l2-1z" fill="#9C6945"/>
<path transform="translate(1500,596)" d="m0 0 2 1 55 1 30 1-1 2h-84l-2-2z" fill="#5F0795"/>
<path transform="translate(1371,223)" d="m0 0 5 2 2 2-17 9-10 8-7 5-1-1v-5l10-10 2-5 5-2 8 3 3-3z" fill="#FEF9F1"/>
<path transform="translate(242,130)" d="m0 0h22l20 3 9 4-3 1-15-4h-35l-9 2-19 7-12 6-2-1 14-8 13-6 12-3z" fill="#B07F54"/>
<path transform="translate(484,152)" d="m0 0 2 4h-2l4 13 4 9 2 8 5 12 6 19 4 27v10h-1l-5-35-5-15-15-38-2-5 1-7z" fill="#C18A58"/>
<path transform="translate(1806,196)" d="m0 0h42v2l-14 4-23 3h-8l1-2 9-2v-3l-7-1z" fill="#FFF7EC"/>
<path transform="translate(570,78)" d="m0 0h43l-3 2-25 4-13 3-1 7-2-3v-12z" fill="#FFFAF2"/>
<path transform="translate(1126,78)" d="m0 0h85l1 2-1 7-5 1-3-3-9-3-15-1v-2h-53z" fill="#FDF6ED"/>
<path transform="translate(1219,599)" d="m0 0 2 4-3 2-7 1h-78l-3-2v-2l5 1h80z" fill="#865E4D"/>
<path transform="translate(1018,84)" d="m0 0m-26 0 14 1h12l-2 3-4 1-25 2-11 3-6 4-3-1 2-4 5-3 3-3h2v-2h8zm0 2v1h12v-1z" fill="#FEFBF4"/>
<path transform="translate(477,138)" d="m0 0 4 4 10 18 12 26 6 18v5l-2-1-7-20-3-5-2-6-3-1-4-9v-8l-8-14-3-5z" fill="#906247"/>
<path transform="translate(349,194)" d="m0 0 3 4 2 5v4h-2v2l-2 1v11h4l1-7 3 1 2 11-1 6-8-1-3-7-2-12v-5h3z" fill="#E9B882"/>
<path transform="translate(165,185)" d="m0 0 1 4-2 9v51l1 9-3-4-2-6v-48z" fill="#B07F54"/>
<path transform="translate(569,76)" d="m0 0h90l7 6 10 14-1 2-9-11-7-8-1-1h-27l-62 1z" fill="#926A56"/>
<path transform="translate(1145,592)" d="m0 0h34l40 1v3l-87-1v-1h13z" fill="#D3A370"/>
<path transform="translate(1771,585)" d="m0 0 11 2 11 1 6 3 6 1 1 4 5 1v1h-7l-25-4-4-4v-2l-4-2z" fill="#FFF8EE"/>
<path transform="translate(242,12)" d="m0 0h23l27 1 18 3 24 7 5 2-4 1-20-5-11-3-16-3-39-1h-30v-1z" fill="#A16968"/>
<path transform="translate(320,613)" d="m0 0h5v4l-19 6-11 3h-11l2-4 28-7z" fill="#FDFAF6"/>
<path transform="translate(86,604)" d="m0 0 5 2 26 10 36 9 9 2v1l-14-1-20-4-21-6-1-2-14-5-6-5z" fill="#C48E5C"/>
<path transform="translate(685,111)" d="m0 0 5 5 13 20 1 6v3l2 7-3-3-9-13-6-12-1-8z" fill="#D0A173"/>
<path transform="translate(1126,79)" d="m0 0h53l-3 2h-14l-19 3h-12l-3 2-2 3-1-8z" fill="#FDFCFC"/>
<path transform="translate(238,128)" d="m0 0h28l11 1 5 3-4 1-14-2h-22l-13 3-10 4-16 8-4 1 5-5 19-9z" fill="#C18A58"/>
<path transform="translate(275,493)" d="m0 0h7l-1 3-21 7-16 1-8 1h-16l2-2h9l2-2 10-1 5 1 12-3 7-3z" fill="#FDF4E6"/>
<path transform="translate(582,516)" d="m0 0h1l1 21v17l1 20 2 9 1 4-1 1h-6v-29z" fill="#B68355"/>
<path transform="translate(580,559)" d="m0 0h1l1 27-1 2h74l10 1v1l-85-1-2-7v-21z" fill="#CA9A68"/>
<path transform="translate(1352,587)" d="m0 0h1v13l-4 1-29-1-15-2v-1l46-2z" fill="#AD7B51"/>
<path transform="translate(247,146)" d="m0 0h25l10 1 6 2v1l-56 1 3-2 9-2z" fill="#75544B"/>
<path transform="translate(255,501)" d="m0 0m-3 1h3v2l-16 4-13 1h-20l-5-2v-1l14-1 5-1h18z" fill="#FEFBF3"/>
<path transform="translate(1354,406)" d="m0 0h1v133h-1l-1-55h-2v-7l2-6z" fill="#8A5F48"/>
<path transform="translate(691,282)" d="m0 0 4 4 13 22 3 5 4 9 15 25-1 2-6-9-9-14-6-11-10-17-7-14z" fill="#B07F54"/>
<path transform="translate(669,277)" d="m0 0 2 2 1 11v15h-1l-1 14-1 3-1 8h-1v-39l1-13z" fill="#A26F46"/>
<path transform="translate(1299,588)" d="m0 0h23v1l-22 1 1 5-1 1h-27v-1l8-1-1-3 6-2z" fill="#E9B882"/>
<path transform="translate(1502,396)" d="m0 0h1l3 26v10l-2 9-1 40h-1l-1-84z" fill="#FEF0DF"/>
<path transform="translate(1922,470)" d="m0 0v3l-10 10-15 10-16 8-20 7h-5l4-3 25-9 18-10 13-10z" fill="#712B7A"/>
<path transform="translate(1733,219)" d="m0 0h2v2l-18 11-15 11-6 5-7 8-13 13v-3l12-13 6-7 14-11 13-9z" fill="#7D357A"/>
<path transform="translate(1141,76)" d="m0 0h70l5 2 1 3h-4l-2-2-70-1z" fill="#825B49"/>
<path transform="translate(965,539)" d="m0 0h1l1 48 3 9v2h-2l-4-7-1-8v-34l1-1z" fill="#946D54"/>
<path transform="translate(1064,72)" d="m0 0h8l3 3v17l-2 37h-1v-51l-13-1-1-3z" fill="#815D4D"/>
<path transform="translate(1503,443)" d="m0 0h1l1 50v24l-2 10h-1v-46z" fill="#FEFBF7"/>
<path transform="translate(155,635)" d="m0 0 39 3 4 2-1 2h-18l-14-2-10-3z" fill="#A06D46"/>
<path transform="translate(360,593)" d="m0 0h5l-4 3-21 10-23 9-5 1 3-4 20-8 18-8z" fill="#B58458"/>
<path transform="translate(787,420)" d="m0 0 4 1 16 24 3 5v2l-4-2-9-11-10-15z" fill="#FFEDD8"/>
<path transform="translate(742,194)" d="m0 0 5 5 7 10v3h-2l4 10 3 9-4-4-12-24-4-6v-2z" fill="#BC8656"/>
<path transform="translate(376,377)" d="m0 0 1 3-4 8-5 15-6 11-12 19-9 12h-2l2-5 10-13 10-17 7-15 5-14z" fill="#805258"/>
<path transform="translate(1393,291)" d="m0 0h8v2l-17 10-11 9-6 2 2-4 13-11 9-6h2z" fill="#F5E0CA"/>
<path transform="translate(251,420)" d="m0 0 10 1v1l-24 4-11 1h-16l-10-1v-1l11-1 20-1z" fill="#C18A58"/>
<path transform="translate(108,534)" d="m0 0h6l-4 4-13 9-8 6-3-2 4-6 8-7 7-3z" fill="#FEFBF5"/>
<path transform="translate(1260,534)" d="m0 0h1v65l-2-1-1-6v-30z" fill="#916654"/>
<path transform="translate(1071,77)" d="m0 0h1v13l-5 1-4-2h-20l-33 1 2-2 57-3 2 1z" fill="#FFEDD8"/>
<path transform="translate(936,314)" d="m0 0 1 4-9 16-7 10-1 2-4 1 1-5 4-5 6-12h2l2-6z" fill="#A26F48"/>
<path transform="translate(977,562)" d="m0 0h1l3 20 1 4 20 1 38 1v1h-49l-14-1z" fill="#C39161"/>
<path transform="translate(1776,198)" d="m0 0 10 1v1l-12 3-14 5-16 8-7 4h-2l1-3 19-10 12-6z" fill="#986856"/>
<path transform="translate(333,180)" d="m0 0 9 1 4 1 1 8h-1l-1 5-5 1-6-11z" fill="#B07F54"/>
<path transform="translate(783,424)" d="m0 0h5l8 12 7 9v2h-2v2l-3-1-12-17-3-5z" fill="#BF8B5A"/>
<path transform="translate(1510,531)" d="m0 0h1l1 51 3 6 1 1 34 1v1h-40l-1-3z" fill="#934292"/>
<path transform="translate(762,235)" d="m0 0 7 6 14 18 3 10 2 5-5-5-10-16-11-16z" fill="#C18A58"/>
<path transform="translate(1124,590)" d="m0 0 8 4 84 1v1l-75 1-1 1h-7l-5-2-4-4z" fill="#B28156"/>
<path transform="translate(1135,550)" d="m0 0h1v31l1 5 43 1v1h-42l-5-1 1-36z" fill="#BA895B"/>
<path transform="translate(1502,597)" d="m0 0h87l-1 3-31-1-55-1z" fill="#A37450"/>
<path transform="translate(1413,201)" d="m0 0h36l2 1 15 1 3 2h-14l-13-2-5-1-1 2h-29l3-2z" fill="#A9795C"/>
<path transform="translate(471,136)" d="m0 0h2v2l5 2 4 7 2 3-1 4-2 7-3-3-6-18z" fill="#CC9C6A"/>
<path transform="translate(967,587)" d="m0 0 4 5 4 3 31 1v1h-17l-2 4h-10l-4-2v-2h-2l-1 3-1-4-2-5z" fill="#BB8757"/>
<path transform="translate(174,273)" d="m0 0 3 3 6 9 5 8 9 7-2 1-11-6-6-7-4-7z" fill="#A27046"/>
<path transform="translate(168,214)" d="m0 0h3l-1 8-1 28v10h-2l-1-5v-38z" fill="#A06D46"/>
<path transform="translate(965,92)" d="m0 0v3l-10 14v1l1 4-2 2-4 6-6 4h-2l-2 4v-3l10-15 13-18z" fill="#B7A19A"/>
<path transform="translate(384,581)" d="m0 0h2v2h2l-1 3-18 11-4-2 1-3 17-10z" fill="#FEF7EB"/>
<path transform="translate(1160,175)" d="m0 0h20v1l-11 1-1 1-20 1-13 2-9 4-2-1 5-4 9-3z" fill="#B68355"/>
<path transform="translate(147,494)" d="m0 0h7l7 3 22 3 10 3v1h-9l-21-3-6-3-14-2z" fill="#9F6E62"/>
<path transform="translate(1861,588)" d="m0 0 7 1-2 1 1 5 3 1-17 2v-2l-4-1 10-3h3v-2l-7 3-3-1-5 1-1-3z" fill="#D0A376"/>
<path transform="translate(792,280)" d="m0 0 7 4 4-3 5 5 4 6v2h-7l-8-7-5-5z" fill="#C08957"/>
<path transform="translate(1072,78)" d="m0 0h1v61l-2 14h-1v-28z" fill="#B07D51"/>
<path transform="translate(381,369)" d="m0 0 3 1-1 5-4 9-4 10-4 1 2-10 3-5 3-9z" fill="#FEEDD7"/>
<path transform="translate(274,629)" d="m0 0h2l-1 4h-19l-17 1-37-1v-1l64-2z" fill="#C69463"/>
<path transform="translate(212,14)" d="m0 0 4 1-4 2-19 3-23 7-12 5-4-1 25-10 13-4 18-2z" fill="#976D54"/>
<path transform="translate(1218,353)" d="m0 0h1l1 41v34h-1l-1-9-1-5z" fill="#A26F45"/>
<path transform="translate(363,594)" d="m0 0 3 1 1 3-16 8-4 1-4-3z" fill="#FDF8F2"/>
<path transform="translate(69,569)" d="m0 0 2 1-14 10-2 3 1 4v3l-4 1-5-3v-2l-9-1v-1l12-2 12-8z" fill="#FEEBD4"/>
<path transform="translate(1130,602)" d="m0 0 5 1h43l1 2-11 1h-35l-3-2z" fill="#714D51"/>
<path transform="translate(1214,90)" d="m0 0 2 3 1 5-1 26-1 30h-1z" fill="#8E634A"/>
<path transform="translate(435,533)" d="m0 0h2l-2 4-24 24-4 1 6-7 9-10 9-9z" fill="#A26F48"/>
<path transform="translate(183,147)" d="m0 0 2 1-10 10-8 13-4 12-4 8-1-3 3-11 7-13 8-10z" fill="#E9B882"/>
<path transform="translate(1725,567)" d="m0 0 7 1 26 12 4 2h-9l-10-4-4-4-6-1-4-4z" fill="#FFEDD8"/>
<path transform="translate(1271,588)" d="m0 0h28v1l-13 1-5 2v2l-8 2h-10l1-2 7-1v-4z" fill="#FEDDAF"/>
<path transform="translate(338,444)" d="m0 0 2 2-9 10-11 10-13 9-3-1 19-14z" fill="#89634F"/>
<path transform="translate(968,553)" d="m0 0 2 2 2 9-1 25h-3l-1-2v-8l1-6z" fill="#FFEDD8"/>
<path transform="translate(1131,587)" d="m0 0h7v2l8 1-1 4h-14l-2-1v-5z" fill="#FEEED9"/>
<path transform="translate(579,557)" d="m0 0v3 22l2 9 6 1v1h-8l-7-1v-1h6l-1-3-2-18v-9z" fill="#E9B882"/>
<path transform="translate(1125,186)" d="m0 0 30 2 1 1 11 1v1h-31l-10-3z" fill="#73534C"/>
<path transform="translate(1796,590)" d="m0 0h30v2h6v2l-5 1-18-1-13-3z" fill="#926447"/>
<path transform="translate(581,589)" d="m0 0 55 1v1l-33 1-6 1h-10l-6-2z" fill="#FEDDAF"/>
<path transform="translate(70,371)" d="m0 0 5 2 9 6 11 10 10 7-2 1-6-3v-2l-5-2-9-8-10-7z" fill="#C18A58"/>
<path transform="translate(1135,208)" d="m0 0h69v1l-33 1-19 1-1-1-16-1z" fill="#5D019B"/>
<path transform="translate(1214,86)" d="m0 0 2 2v5h-1l-1 14-1 35-2 1 1-52z" fill="#B88455"/>
<path transform="translate(343,259)" d="m0 0 1 4-8 13-2 5-9 9-6 2 6-7 7-7 10-17z" fill="#E9D8C9"/>
<path transform="translate(342,200)" d="m0 0 4 1v7l1 4 1 13v23l-2 7-1-4 1-7v-12l-2-22z" fill="#92684D"/>
<path transform="translate(440,90)" d="m0 0 7 6 10 12 14 19 4 6-1 2-6-8-10-13-9-12-9-10z" fill="#7C4F55"/>
<path transform="translate(165,258)" d="m0 0 2 3 5 9 3 3v8l6 11-3-1-7-11-6-18z" fill="#AF7E53"/>
<path transform="translate(677,251)" d="m0 0 4 3 6 17 2 6-5-1-7-21z" fill="#B58255"/>
<path transform="translate(477,138)" d="m0 0 4 4 10 18 3 14-1 3-5-10v-8l-8-14-3-5z" fill="#A17046"/>
<path transform="translate(1263,560)" d="m0 0 2 4v10l-2 9-1 10h-1v-31h2z" fill="#FDDBAD"/>
<path transform="translate(257,499)" d="m0 0 3 1-8 3-16 2h-16l2-2h9l2-2 10-1 5 1z" fill="#E4C9AE"/>
<path transform="translate(1875,587)" d="m0 0 12 2v1l-9 3-5 2h-6v-2l-2-1 1-2 9-2z" fill="#EED5BA"/>
<path transform="translate(1893,582)" d="m0 0 4 1v1l2 2-6 3h-11l-4-2 9-3z" fill="#FFF0DE"/>
<path transform="translate(1585,367)" d="m0 0 2 2 1 16v15l-2-1-1-5-1-21v-5z" fill="#670E97"/>
<path transform="translate(1211,80)" d="m0 0 7 1v19l-2-2-1-10-4 4h-1z" fill="#CA9967"/>
<path transform="translate(370,395)" d="m0 0h3l-2 5-10 23-8 14-1-2 8-17 4-9 4-8z" fill="#FEDDAF"/>
<path transform="translate(1733,219)" d="m0 0h2v2l-18 11-14 10v-3l12-9 16-10z" fill="#701E90"/>
<path transform="translate(15,219)" d="m0 0h1v35h-2l-1-9v-12z" fill="#AC7D56"/>
<path transform="translate(314,150)" d="m0 0 5 2 13 11 4 4-1 2-11-7-10-11z" fill="#B48154"/>
<path transform="translate(1129,493)" d="m0 0h1l1 40-1 26h-1l-1-31z" fill="#FFEDD8"/>
<path transform="translate(967,242)" d="m0 0 3 1-3 3-6 1-2 5-12 13-5 5-2-1 16-17 6-8z" fill="#C08957"/>
<path transform="translate(1391,206)" d="m0 0 2 1 1 2-13 5-10 5h-2l1-4z" fill="#762486"/>
<path transform="translate(216,310)" d="m0 0 9 2 15 4 29 1v1h-33l-9-3-9-2v-2z" fill="#946651"/>
<path transform="translate(349,194)" d="m0 0 3 4 2 5v4h-2v2l-2 1-1 8-2-1-1-10h3z" fill="#E7B782"/>
<path transform="translate(1267,464)" d="m0 0h1v42l-2 7h-1v-16h1z" fill="#FFEDD8"/>
<path transform="translate(1882,497)" d="m0 0 4 2-19 7-6 2h-5l4-3z" fill="#894C6B"/>
<path transform="translate(1045,591)" d="m0 0h22v3h-22z" fill="#FFFBF3"/>
<path transform="translate(76,546)" d="m0 0 2 1-11 9-13 10-8 6-2-1 8-7 12-9z" fill="#A67651"/>
<path transform="translate(1352,587)" d="m0 0h1v13l-4 1-4-3-22-1v-1l28-1z" fill="#B78355"/>
<path transform="translate(966,430)" d="m0 0h1v37h-1l-1-7h-1l1-24z" fill="#8F654C"/>
<path transform="translate(969,244)" d="m0 0h1l-1 42-2 1v-35l-2 1 2-8z" fill="#6E435A"/>
<path transform="translate(946,123)" d="m0 0 2 2-12 16-4 1 5-9 5-7z" fill="#FDFBF9"/>
<path transform="translate(1860,587)" d="m0 0h15l1 2-8 1-7-1-15 2-1 2-3-1 1-1-2-2z" fill="#A06F4A"/>
<path transform="translate(52,566)" d="m0 0 2 1-7 9-7 3h-3l2-4 3-3 5-2z" fill="#FBF8F3"/>
<path transform="translate(763,223)" d="m0 0 5 5 6 8v2l-3 1-5-5-2-3z" fill="#A37146"/>
<path transform="translate(362,412)" d="m0 0 1 3-8 16-6 10h-3l8-13 1-4z" fill="#FFEEDA"/>
<path transform="translate(773,398)" d="m0 0 6 5 4 7v3l-4-1-7-10z" fill="#FEE5C5"/>
<path transform="translate(793,436)" d="m0 0 6 4 4 5v2h-2v2l-3-1-6-8z" fill="#BE8959"/>
<path transform="translate(904,183)" d="m0 0 2 3-2 2-10 15-3-1 10-16z" fill="#FDFBF7"/>
<path transform="translate(401,57)" d="m0 0 4 2 13 10 13 11 2 3-4-2-13-11-14-11z" fill="#7C4861"/>
<path transform="translate(1138,588)" d="m0 0h10l15 2 2 2h-20l-2-2-5-1z" fill="#FEDDAF"/>
<path transform="translate(1838,199)" d="m0 0 4 1-13 3-18 2h-8l1-2 22-2 4-1z" fill="#FFEDD8"/>
<path transform="translate(974,559)" d="m0 0h1l1 17v13h-3v-20z" fill="#E9B882"/>
<path transform="translate(167,498)" d="m0 0 16 2 10 3v1h-9l-18-4z" fill="#7C406A"/>
<path transform="translate(140,494)" d="m0 0h2l-2 4-15 13-3 3-2-1 18-18z" fill="#866357"/>
<path transform="translate(1725,427)" d="m0 0h25v1l-23 1 2 9v5l-3-3-1-2z" fill="#6A2C72"/>
<path transform="translate(853,281)" d="m0 0 2 1-11 9-10 7-7 4 1-4 14-8 8-7z" fill="#FEDDAF"/>
<path transform="translate(973,597)" d="m0 0h16l-2 4h-10l-4-2z" fill="#B07F54"/>
<path transform="translate(123,585)" d="m0 0 3 1-17 8-6 2-5 5-2 1 2-5 5-4z" fill="#C18A58"/>
<path transform="translate(273,491)" d="m0 0 3 1-1 2-14 4-8 3-9 1-1-2 12-2z" fill="#A37654"/>
<path transform="translate(354,426)" d="m0 0 1 2-6 10-9 11h-2l2-4 11-15z" fill="#FFF9EF"/>
<path transform="translate(1771,585)" d="m0 0 11 2 11 1-2 2-15 1-1-3-4-2z" fill="#FFEDD8"/>
<path transform="translate(1687,545)" d="m0 0 5 2 12 11-1 4-16-16z" fill="#815B49"/>
<path transform="translate(345,395)" d="m0 0 4 2-10 7-4 1v-3l2-3z" fill="#9A6946"/>
<path transform="translate(376,377)" d="m0 0 1 3-4 8-5 15-1 2h-2l1-5 7-19z" fill="#773D68"/>
<path transform="translate(1261,299)" d="m0 0 3 1h1l1 3-3 4 1 7-2 2-2-2v-13z" fill="#FCE5C9"/>
<path transform="translate(1036,78)" d="m0 0h22l-1 2-17 2h-5z" fill="#FDFDFD"/>
<path transform="translate(86,604)" d="m0 0 25 10v1l-8-1-13-5z" fill="#CFA06D"/>
<path transform="translate(648,596)" d="m0 0h22l-2 1v3l-10-1-10-2z" fill="#AD7C51"/>
<path transform="translate(1644,328)" d="m0 0h6l-2 5-2 2-2 5-3 2 1-13z" fill="#FFF1E1"/>
<path transform="translate(256,632)" d="m0 0h12l-4 2-12 2-9-1 1-2z" fill="#B07F54"/>
<path transform="translate(1498,371)" d="m0 0 2 4 3 16v5l-3 1-2-20z" fill="#68168A"/>
<path transform="translate(184,295)" d="m0 0 6 2 5 3 4 1v2l5 2 3 3-9-3-8-4-6-5z" fill="#AF7E53"/>
<path transform="translate(35,582)" d="m0 0 3 2 9 2v2l3 1 1 3-9-2-7-6z" fill="#B08159"/>
<path transform="translate(69,569)" d="m0 0 2 1-14 10-2 3 1 4v3l-4 1-2-2h3v-7l5-5z" fill="#FEDDAF"/>
<path transform="translate(1711,235)" d="m0 0 5 1-5 5-8 5-2-1 6-7z" fill="#FDFBFA"/>
<path transform="translate(501,189)" d="m0 0h3l5 15v5l-2-1-6-18z" fill="#9A6947"/>
<path transform="translate(261,639)" d="m0 0 9 1-1 2-13 1-10-1 3-2z" fill="#A26E47"/>
<path transform="translate(815,461)" d="m0 0 5 1 5-1-2 7h-4l-4-5z" fill="#FFF1E1"/>
<path transform="translate(1266,600)" d="m0 0 4 2v2l24 1v1l-8 1h-12l-8-4z" fill="#6A1F80"/>
<path transform="translate(1641,332)" d="m0 0h2l-1 7-1 3-1 13-3 3 2-18z" fill="#722E77"/>
<path transform="translate(151,428)" d="m0 0 11 2 7 2v2l-10-1-8-3z" fill="#9C6B47"/>
<path transform="translate(135,412)" d="m0 0 7 1 13 3v2l-16-2-2-1v-2z" fill="#EBC79F"/>
<path transform="translate(1138,177)" d="m0 0h9v1h-7v2l-9 3-7 2 5-5z" fill="#BA8556"/>
<path transform="translate(279,13)" d="m0 0h13l13 2v2l2 1-13-2-15-2z" fill="#7B3E6A"/>
<path transform="translate(1801,592)" d="m0 0h4l1 4 5 1v1h-7l-10-3 1-2z" fill="#FFEDD8"/>
<path transform="translate(569,591)" d="m0 0h3l3 5 4 3-1 2h5v1h-6l-5-3-3-5z" fill="#9A6C49"/>
<path transform="translate(466,493)" d="m0 0h4v3h-2l-2 4-3 3-2-2 2-6z" fill="#A16E47"/>
<path transform="translate(19,274)" d="m0 0h2l3 17v5l-2-1-4-19z" fill="#FFEDD8"/>
<path transform="translate(1124,208)" d="m0 0h11l16 1v1l-26 1-1 5h-1v-7z" fill="#7E594A"/>
<path transform="translate(459,117)" d="m0 0 5 3 5 7-2 2-6-5-2-3z" fill="#D1A16E"/>
<path transform="translate(1922,470)" d="m0 0v3l-10 10-8 5 1-4 11-8z" fill="#73356F"/>
<path transform="translate(347,217)" d="m0 0h1l2 10 1 3 5 2-4 2-3 4-2-13z" fill="#FEDFB6"/>
<path transform="translate(938,130)" d="m0 0v3l-5 8 2 2-6 8h-1v-5l4-8z" fill="#C4B1A7"/>
<path transform="translate(1214,90)" d="m0 0 2 3 1 5v8l-1 4h-2z" fill="#926446"/>
<path transform="translate(1648,316)" d="m0 0 2 3-1 2v7l-6 1 2-9z" fill="#671192"/>
<path transform="translate(670,303)" d="m0 0 2 2 1 9v9h-2l-1-3z" fill="#7B584B"/>
<path transform="translate(174,168)" d="m0 0 1 2-8 15-2-4 6-11z" fill="#BD8857"/>
<path transform="translate(877,221)" d="m0 0v3l1 4-4 5-5 1 2-5z" fill="#D1BEB0"/>
<path transform="translate(784,410)" d="m0 0h1l2 15h-2l-4-6 1-3v-3h2z" fill="#A16F46"/>
<path transform="translate(313,295)" d="m0 0 2 1-6 5h-2l-2 5-7 2-4-1 11-6z" fill="#C7A586"/>
<path transform="translate(832,289)" d="m0 0 1 2-8 14-4 1-2-3 4-1z" fill="#7A4762"/>
<path transform="translate(685,275)" d="m0 0 4 2 3 7 1 4h-3l-3-4-2-5z" fill="#A8764A"/>
<path transform="translate(1074,582)" d="m0 0h1v18l-6 5-2-1 5-6z" fill="#745050"/>
<path transform="translate(1796,510)" d="m0 0h8l5 1-1 3h-7l-6-2z" fill="#FFEDD9"/>
<path transform="translate(477,138)" d="m0 0 4 4 10 18-1 3-10-18-3-5z" fill="#7C5152"/>
<path transform="translate(577,582)" d="m0 0h2l2 9 6 1v1h-8l-7-1v-1h6z" fill="#E4B37D"/>
<path transform="translate(76,379)" d="m0 0 8 6 2 1v2l4 2 4 5-5-2-7-7-6-5z" fill="#A47246"/>
<path transform="translate(167,236)" d="m0 0h1l1 14v10h-2l-1-5z" fill="#8E6349"/>
<path transform="translate(511,218)" d="m0 0 3 2 2 8-1 6-2-2-2-11z" fill="#A16E47"/>
<path transform="translate(459,511)" d="m0 0v3l-7 11-3-3z" fill="#FFEDD8"/>
<path transform="translate(1733,219)" d="m0 0h2v2l-15 9-1-3z" fill="#793476"/>
<path transform="translate(1125,76)" d="m0 0h16v2h-15l-1 3-1-4z" fill="#835A4C"/>
<path transform="translate(53,356)" d="m0 0 5 2 7 7 5 4-1 2-11-9-1-2-4-2z" fill="#BC8757"/>
<path transform="translate(888,204)" d="m0 0 1 2-2 3 1 4-1 2h-5l-1 3-1-2z" fill="#BFA89B"/>
<path transform="translate(173,197)" d="m0 0 3 1-2 9-2 2-1-9z" fill="#9C6A46"/>
<path transform="translate(1074,577)" d="m0 0h1l-1 15-5-3z" fill="#AE7C50"/>
<path transform="translate(1704,559)" d="m0 0 8 6 4 5-1 2-11-9z" fill="#640D93"/>
<path transform="translate(318,464)" d="m0 0 3 1-14 10-3-1z" fill="#966B4F"/>
<path transform="translate(343,259)" d="m0 0 1 4-8 13-3 2 2-5z" fill="#895D5A"/>
<path transform="translate(275,132)" d="m0 0 9 1 9 4-3 1-15-4z" fill="#B48155"/>
<path transform="translate(663,80)" d="m0 0 5 5 8 11-1 2-9-11-3-4z" fill="#7C4469"/>
<path transform="translate(1067,590)" d="m0 0 5 1v4h-16v-1h11z" fill="#FEEBD3"/>
<path transform="translate(81,558)" d="m0 0v3l-4 5-4 3-2-1 6-9z" fill="#FEEBD0"/>
<path transform="translate(468,497)" d="m0 0 2 1-4 7-5 6-1-2 6-10z" fill="#FFEFDD"/>
<path transform="translate(183,147)" d="m0 0 2 1-10 10-4 6-2-1 7-9z" fill="#E5B47E"/>
<path transform="translate(44,590)" d="m0 0 7 2 8 3-3 4-12-8z" fill="#A3724B"/>
<path transform="translate(1510,582)" d="m0 0h2l4 8-6 1-1-8z" fill="#7B11BC"/>
<path transform="translate(282,510)" d="m0 0 3 1-17 9-3-1 7-4z" fill="#C18A58"/>
<path transform="translate(513,416)" d="m0 0h2l-3 15h-2l1-12z" fill="#AA784C"/>
<path transform="translate(142,624)" d="m0 0h7l13 3v1l-14-1-6-1z" fill="#C89462"/>
<path transform="translate(1868,502)" d="m0 0 4 1-5 3-6 2h-5l4-3z" fill="#7A317A"/>
<path transform="translate(55,359)" d="m0 0 3 1 5 5 3 4-1 3-9-10z" fill="#A7754A"/>
<path transform="translate(1651,308)" d="m0 0 2 1-1 9-2-2-3 1 2-7z" fill="#7F3381"/>
<path transform="translate(484,156)" d="m0 0 4 1 1 5-1 5-2-1z" fill="#AE7D53"/>
<path transform="translate(65,593)" d="m0 0h7l5 2v2h-2l-1 2-9-5z" fill="#FCD9AA"/>
<path transform="translate(66,370)" d="m0 0 7 6 3 4-3 1-7-7z" fill="#AD7B4F"/>
<path transform="translate(390,359)" d="m0 0h8l-3 2-1 7-2-4h-6z" fill="#C18A58"/>
<path transform="translate(1072,589)" d="m0 0h1v9l-3 1v-2l-14-1v-1h16l-1-5z" fill="#CB9A68"/>
<path transform="translate(1676,533)" d="m0 0 4 2 9 9-3 1-10-11z" fill="#641488"/>
<path transform="translate(244,532)" d="m0 0 2 1-9 6-9 2 4-3z" fill="#C18A58"/>
<path transform="translate(342,200)" d="m0 0 4 1v16h-1l-3-14z" fill="#7C4F54"/>
<path transform="translate(970,556)" d="m0 0 3 1 1 2v10l-2-4-2-5z" fill="#FEE2BE"/>
<path transform="translate(370,395)" d="m0 0h3l-2 5-4 9h-2l2-6z" fill="#FEE4C2"/>
<path transform="translate(871,232)" d="m0 0 2 1-1 3-2 1-1 5-5 2 2-5z" fill="#FDFBF8"/>
<path transform="translate(1371,223)" d="m0 0 5 2 2 2-9 4-1-2 3-3z" fill="#FEF8EE"/>
<path transform="translate(1391,206)" d="m0 0 2 1 1 2-8 3-4-1 1-2z" fill="#8E438B"/>
<path transform="translate(1353,471)" d="m0 0h1v12l-3 1v-7z" fill="#704F4E"/>
<path transform="translate(221,314)" d="m0 0 9 1 9 3v1l-7-1-9-2z" fill="#AC7A50"/>
<path transform="translate(1684,257)" d="m0 0h2l-2 4-7 8-2-2z" fill="#753473"/>
<path transform="translate(671,235)" d="m0 0 2 3-1 5h-2v12h-1v-13z" fill="#906157"/>
<path transform="translate(967,587)" d="m0 0 4 5 2 2v3h-2l-1 3-1-4-2-5z" fill="#C59364"/>
<path transform="translate(1864,587)" d="m0 0h11l1 2-8 1-6-1z" fill="#B28155"/>
<path transform="translate(961,102)" d="m0 0 2 2-6 6-4 2 2-4 5-5z" fill="#FDFBF8"/>
<path transform="translate(1214,86)" d="m0 0 2 2v5h-1l-1 14h-1v-19z" fill="#B38054"/>
<path transform="translate(282,623)" d="m0 0 3 1-1 2h8v1l-13 1v-2h2z" fill="#FFF5E8"/>
<path transform="translate(77,595)" d="m0 0 4 2 2 5-7-2-1-3h2z" fill="#FEECD6"/>
<path transform="translate(1871,589)" d="m0 0m-5 1h5v2l2 1v2h-6v-2l-2-1z" fill="#FEECD6"/>
<path transform="translate(1503,426)" d="m0 0h2l1 6-2 9h-1z" fill="#FDFCFA"/>
<path transform="translate(1133,181)" d="m0 0m-10 1 1 3 9-3-1 4-8 1z" fill="#A17046"/>
<path transform="translate(1064,72)" d="m0 0h8l2 1-1 3v-2l-11 1v-2z" fill="#641983"/>
<path transform="translate(325,21)" d="m0 0 9 2 5 2-4 1-9-3z" fill="#73386D"/>
<path transform="translate(1215,590)" d="m0 0 4 1v2h-10l-3-2z" fill="#FEDDAF"/>
<path transform="translate(346,439)" d="m0 0v3l-6 7h-2l2-4 4-5z" fill="#FFF7EB"/>
<path transform="translate(837,293)" d="m0 0m-2 1h2l-1 3-9 5 1-4z" fill="#FDDBAD"/>
<path transform="translate(1396,291)" d="m0 0h5v2l-7 4-2-1 2-4z" fill="#FFEFDD"/>
<path transform="translate(167,260)" d="m0 0h3l3 11-4-4-2-3z" fill="#A06D46"/>
<path transform="translate(314,160)" d="m0 0 5 3 4 4-1 3-8-7z" fill="#956647"/>
<path transform="translate(1207,76)" d="m0 0 7 1 3 3-1 2-4-2-5-2z" fill="#845850"/>
</svg>
